<svg xmlns="http://www.w3.org/2000/svg" viewBox="-427.8 301 79 51.8" enable-background="new -427.8 301 79 51.8"><style type="text/css">.st0{fill:#005949;} .st1{fill:#00590A;} .st2{display:none;}</style><path class="st0" d="M-394.9 321s1.5-3.9 2.3-8.3c-8.9 3.3-17.8 10.9-20.5 12.7 1.7-1.9 7-8.4 17-15.8-.6 0-1.2.1-1.7.2-23.6.8-26.2 23.5-26.2 23.5 17 3.1 24-2.1 29.1-12.3z"/><path class="st1" d="M-363.5 331.2c-3.4-5.5-9.7-18.3-23-24.1-.6 4.2-.2 8.2-.2 8.2 2.5 33 34.8 35.7 34.8 35.7 7.2-25.5-5.4-41.5-25.3-48.4 0 0-2.2-.6-5.3-.8 13.5 11.6 18.2 25.2 19 29.4z"/></svg>