<svg xmlns="http://www.w3.org/2000/svg" width="150" height="256" viewBox="0 0 150 256"><style type="text/css">.st0{fill:#03A700;} .st1{fill:none;stroke:#03A700;stroke-width:7;stroke-miterlimit:10;}</style><path class="st0" d="M115.1 131.7c-6.7-3.2-11.6-4.1-14.7-4.2l-5.4 4.2c2.4-.9 9-2.6 19.1 2.2 8.5 4.1 7.9 27.3 7.9 27.3s-1.1-21.4-9.9-25.6c-17.2 25.1 7.3 55.2 27.3 54.8-17-8.2 9.8-42.5-24.3-58.7zM81.5 64.5c6.7-3.2 11.6-4.1 14.7-4.2l5.4 4.2c-2.4-.9-9-2.6-19.1 2.2-8.5 4.1-7.9 27.3-7.9 27.3s1.1-21.4 9.9-25.6c17.2 25.1-7.3 55.2-27.3 54.8 17-8.2-9.8-42.5 24.3-58.7zM36.2 173c7 2.4 11.9 2.8 15.1 2.6l4.9-4.7c-2.3 1.2-8.7 3.6-19.2-.1-8.9-3.1-10.8-26.3-10.8-26.3s3.4 21.1 12.6 24.4c14.4-26.8-13.1-54.1-33-51.5 17.7 6.2-5.2 43.1 30.4 55.6zM117.2 237.2c4.2 1.5 7.3 1.7 9.2 1.6l3-2.9c-1.4.7-5.3 2.2-11.7-.1-5.4-1.9-6.6-16-6.6-16s2.1 12.8 7.6 14.8c8.7-16.3-8-32.8-20.1-31.3 10.9 3.9-3 26.3 18.6 33.9zM85.3 35.6c-2.6 5.9-3.3 10.2-3.3 12.9l3.8 4.5c-.9-2-2.5-7.8 1.4-16.6 3.3-7.5 23.5-7.6 23.5-7.6s-18.5 1.6-21.9 9.3c22.2 14.2 47.6-7.8 46.8-25.2-6.7 15-37.2-7.3-50.3 22.7z"/><path class="st1" d="M75 0c0 71.4 23.1 42 40 83.5 17.2 42.2-87.8 75.5-56.2 113.5 16.7 20 16.2 25.9 16.2 59M61.9 203.3c-15.9 12.7-10.9 39.2-61.9 39.2M116.7 91.7c22.7-7.2 9.3-38.7 33.3-38.7M0 53.1c17.9 0 15.9 21.9 31 21.9s4.2-24.1 13-42 14-10.3 31-11.5M150 242.5c-21.5 0-36-7.2-36-19.6"/></svg>