<svg id="Layer_1" xmlns="http://www.w3.org/2000/svg" width="50" height="100" viewBox="0 0 50 100"><style>.st0{fill:url(#SVGID_1_);stroke:#FFA90F;stroke-miterlimit:10;} .st1{fill:url(#SVGID_2_);stroke:#FFA90F;stroke-miterlimit:10;} .st2{fill:#FFA90F;}</style><linearGradient id="SVGID_1_" gradientUnits="userSpaceOnUse" x1="25" y1="43.268" x2="25" y2="6.732"><stop offset="0" stop-color="#FBBD00"/><stop offset="1" stop-color="#FFF87E"/></linearGradient><path class="st0" d="M25 6.7l5.9 12.1 13.3 1.9-9.6 9.3 2.3 13.3L25 37l-11.9 6.3L15.4 30l-9.6-9.3 13.3-1.9z"/><linearGradient id="SVGID_2_" gradientUnits="userSpaceOnUse" x1="25" y1="93.268" x2="25" y2="56.732"><stop offset="0" stop-color="#FBBD00"/><stop offset="1" stop-color="#FFF87E"/></linearGradient><path class="st1" d="M25 56.7l5.9 12.1 13.3 1.9-9.6 9.3 2.3 13.3L25 87l-11.9 6.3L15.4 80l-9.6-9.3 13.3-1.9z"/><path class="st2" d="M15.4 63.4S13 51.9 8.9 56s6.5 7.4 6.5 7.4zM35 63.4s2.4-11.5 6.5-7.4-6.5 7.4-6.5 7.4zM24.8 89.4s-5.5 9.8.2 9.8c5.8 0-.2-9.8-.2-9.8zM11.7 81.3s-6 10.1-8.5 4.8c-2.5-5.2 8.5-4.8 8.5-4.8zM38.8 81.3s6 10.1 8.5 4.8c2.6-5.2-8.5-4.8-8.5-4.8z"/></svg>